<svg width="937" height="250" viewBox="0 0 937 250" fill="none" xmlns="http://www.w3.org/2000/svg">
<path d="M868.598 186.099C842.424 186.099 824.625 169.086 824.625 148.932C824.625 135.059 830.907 119.355 849.491 111.503C869.383 103.127 884.564 103.65 911.524 103.65V90.5631C911.524 74.8584 895.819 66.2209 880.376 66.2209C866.242 66.2209 848.444 70.9323 848.444 94.4892H827.242C827.242 53.3955 861.007 48.6841 880.376 48.6841C916.497 48.6841 932.987 66.2209 932.987 91.3483L932.725 150.241C932.725 157.046 932.202 171.704 936.651 183.22H917.02C913.88 178.509 912.047 167.516 915.45 160.449H906.812C899.745 180.341 884.564 186.099 868.598 186.099ZM870.692 169.086C892.155 169.086 911.524 155.214 911.524 135.059V119.093C889.537 119.093 874.618 119.878 862.054 125.375C854.202 128.778 846.611 136.368 846.611 148.932C846.611 160.972 857.343 169.086 870.692 169.086Z" fill="#FFFCF1"/>
<path d="M760.217 249.965C736.922 249.965 703.157 238.71 699.754 201.28H721.217C724.096 218.556 735.09 232.428 760.217 232.428C782.989 232.428 802.096 219.864 802.096 188.717C802.096 164.898 804.975 157.831 807.593 154.167H798.432C794.767 165.683 785.344 187.146 756.029 187.146C720.17 187.146 695.828 158.878 695.828 119.093C695.828 78.7845 720.432 49.731 755.244 49.731C776.445 49.731 791.103 58.892 800.002 74.0731H809.163C805.76 69.8852 803.143 60.9859 803.143 52.3484H823.559V175.106C823.559 224.314 804.713 249.965 760.217 249.965ZM759.955 168.563C789.532 168.563 802.096 144.744 802.096 118.046C802.358 90.3012 787.7 68.3147 759.694 68.3147C731.164 68.3147 718.076 91.6099 718.076 118.308C718.076 145.006 731.687 168.563 759.955 168.563Z" fill="#FFFCF1"/>
<path d="M602.393 183.22H580.93V52.3484H601.346C601.346 62.5564 597.158 72.7644 593.232 78.261H602.393C608.151 70.6705 619.929 49.731 643.748 49.731C667.043 49.731 692.694 64.1269 692.694 96.8448V183.22L671.231 182.958V101.818C671.231 82.1872 661.023 68.5765 638.513 68.5765C622.023 68.5765 608.674 80.6167 602.393 91.0864V183.22Z" fill="#FFFCF1"/>
<path d="M515.823 186.361C476.823 186.361 451.172 160.449 451.172 117.523C451.172 77.7375 475.252 49.4692 515.037 49.4692C557.701 49.4692 576.809 86.1133 576.809 118.831V124.328H472.111C472.111 135.583 479.964 168.301 515.037 168.301C540.688 168.301 551.158 152.596 553.775 137.153H575.238C573.144 162.019 551.158 186.361 515.823 186.361ZM472.373 107.315H554.561C552.99 87.422 539.903 67.2678 514.776 67.2678C490.172 67.2678 474.467 86.1133 472.373 107.315Z" fill="#FFFCF1"/>
<path d="M357.729 184.06H336.266V0.839844H357.729V28.3229C357.729 43.7658 354.326 66.7992 348.829 76.222H357.99C363.749 62.0878 380.5 50.5711 399.084 50.5711C422.379 50.5711 448.03 64.967 448.03 97.6849V184.06L426.829 183.799V102.658C426.829 83.0273 416.359 69.4167 393.849 69.4167C377.359 69.4167 364.01 81.4568 357.729 91.9266V184.06Z" fill="#FFFCF1"/>
<path d="M336.269 184.006H322.92C289.94 184.006 279.994 173.012 279.994 135.06V70.1471H258.531V52.6103H279.994V16.7515L301.457 17.0132V52.6103H332.866V70.1471H301.457V136.892C301.457 155.476 305.122 166.469 325.276 166.469H336.269V184.006Z" fill="#FFFCF1"/>
<path d="M217.818 172.025C216.089 194.542 192.915 215.048 171.246 218.377C146.747 222.152 83.1976 221.057 57.1717 219.002C52.9051 218.667 39.881 217.126 38.1743 213.328C75.4954 187.349 95.885 148.012 148.79 156.902C158.356 158.511 167.653 166.061 176.77 169.278C191.501 174.46 202.391 175.443 217.796 172.025H217.818Z" fill="#4CAF50"/>
<path d="M40.2178 4.57931C52.7929 32.4572 83.8488 38.7788 98.4 66.2769C115.331 98.332 106.798 130.052 84.1857 156.344C83.4671 132.733 69.612 111.668 51.4455 97.3491C36.9393 85.9121 11.7667 78.8309 5.07492 60.8488C-3.81746 36.8801 17.2907 10.5436 40.2178 4.57931Z" fill="#4CAF50"/>
<path d="M121.282 118.392C131.859 86.6715 133.655 48.9873 156.268 22.5391C159.524 18.7416 174.794 4.80266 178.611 4.40058C200.82 2.1221 228.44 49.8808 218.964 69.2702C212.946 81.5785 163.835 91.6529 149.666 98.6224C139.269 103.715 130.264 111.288 121.305 118.414L121.282 118.392Z" fill="#4CAF50"/>
<path d="M0 82.6507L38.9154 105.368C86.4088 140.462 76.0343 184.937 23.1741 205.152C15.0676 205.912 0 173.902 0 166.418V82.6507Z" fill="#4CAF50"/>
<path d="M220.064 87.1183V156.366C190.782 169.233 170.594 144.795 142.211 143.298C131.724 142.74 120.07 147.275 110.032 149.642C124.157 133.09 144.209 114.661 164.958 107.133C173.401 104.073 182.765 103.068 191.456 99.985C201.403 96.4333 210.475 91.3626 220.064 87.1183Z" fill="#4CAF50"/>
<path d="M157.189 0C160.063 2.5242 142.75 17.2673 140.504 20.2606C129.231 35.2271 124.448 53.0528 119.306 70.7445C118.453 73.7155 120.788 76.9322 115.691 75.9716C112.345 63.0156 105.788 48.9203 96.5587 39.1139C83.6692 25.443 60.5401 18.8533 53.8932 0H157.189Z" fill="#4CAF50"/>
</svg>
